<svg id="Capa_1" data-name="Capa 1" xmlns="http://www.w3.org/2000/svg" version="1.1" viewBox="0 0 110.2 110.2">
  <defs>
    <style>
      .cls-1 {
        fill: #a7bcff;
        stroke-width: 0px;
      }
    </style>
  </defs>
  <path class="cls-1" d="M101.3,70.2h-.4c0,2.6-1.9,4.7-4.3,5.1l-2.7.5c-.1,0-.1.1-.2.1s-.2,0-.2.1c-.1-.1-.1,0-.2,0-.1.1-.2.1-.2.2h-.1c-.1.2-.1.4-.2.5h0c0,.2-.1.4,0,.5l.5,9.9-10.7-9.1c-.1-.1-.2-.1-.4-.2h-.1c0-.1-.8-.1-.8-.1l-29.6,4.6c-1.5.2-2.9-.2-4.1-1.1-1.1-1-1.7-2.3-1.7-3.8v-7.7l12.8,2c.5.1.9.1,1.4.1,2,0,3.9-.7,5.6-2.1,1.9-1.6,3-3.9,3-6.4v-23.5l28.6,4.4c2.5.4,4.3,2.6,4.3,5.1v21Z"/>
  <path class="cls-1" d="M64.5,28.1v35.1c0,1.5-.6,2.8-1.7,3.8-1.1,1-2.6,1.4-4.1,1.1l-29.6-4.4h-.7c-.1,0-.2.1-.4.1s-.2.1-.2.1l-10.7,9.1.5-9.9v-.6c0-.1-.1-.2-.1-.2,0-.1-.1-.2-.1-.2l-.2-.2q-.1-.1-.2-.2c-.1,0-.2-.1-.4-.1s-.1-.1-.2-.1h-2.8c-2.5-.5-4.3-2.7-4.3-5.2v-20.9c0-2.5,1.9-4.7,4.3-5.1l45.4-7c1.5-.2,3,.2,4.1,1.1,1.1,1,1.7,2.3,1.7,3.8Z"/>
</svg>